PathFileType	4	(X/Y/Z)	Walk9.trc
DataRate	CameraRate	NumFrames	NumMarkers	Units	OrigDataRate	OrigDataStartFrame	OrigNumFrames
200.000000	200.000000	4	59	mm	200.000000	450	528
Frame#	Times		LFHD		RBHD		C7		T10		CLAV		STRN		RBack		LASI		RASI		RPSI		RACR1		RUA1		RElbow		RFA1		RWRR		RWRU		RCAR		LACR1		LUA1		LFA1		LWRR		LCAR		RTH1		RTH3		RTH2		RTH4		RLFC		LTH1		LTH3		LTH2		LTH4		LLFC		LTB1		LTB3		LTB2		LTB4		LLMAL		LMMAL		LMT1		LMT5		LToe		LPSI		RFHD		LElbowM		LElbow		LBHD		RMMAL		LWRU		RTB4		RTB2		RTB1		RTB3		RToe		RCAL		RElbowM		RMT1		RLMAL		RMT5		LCAL
			X1	Y1	Z1	X2	Y2	Z2	X3	Y3	Z3	X4	Y4	Z4	X5	Y5	Z5	X6	Y6	Z6	X7	Y7	Z7	X8	Y8	Z8	X9	Y9	Z9	X10	Y10	Z10	X11	Y11	Z11	X12	Y12	Z12	X13	Y13	Z13	X14	Y14	Z14	X15	Y15	Z15	X16	Y16	Z16	X17	Y17	Z17	X18	Y18	Z18	X19	Y19	Z19	X20	Y20	Z20	X21	Y21	Z21	X22	Y22	Z22	X23	Y23	Z23	X24	Y24	Z24	X25	Y25	Z25	X26	Y26	Z26	X27	Y27	Z27	X28	Y28	Z28	X29	Y29	Z29	X30	Y30	Z30	X31	Y31	Z31	X32	Y32	Z32	X33	Y33	Z33	X34	Y34	Z34	X35	Y35	Z35	X36	Y36	Z36	X37	Y37	Z37	X38	Y38	Z38	X39	Y39	Z39	X40	Y40	Z40	X41	Y41	Z41	X42	Y42	Z42	X43	Y43	Z43	X44	Y44	Z44	X45	Y45	Z45	X46	Y46	Z46	X47	Y47	Z47	X48	Y48	Z48	X49	Y49	Z49	X50	Y50	Z50	X51	Y51	Z51	X52	Y52	Z52	X53	Y53	Z53	X54	Y54	Z54	X55	Y55	Z55	X56	Y56	Z56	X57	Y57	Z57	X58	Y58	Z58	X59	Y59	Z59

450	2.25	748.49	1583.3	-43.124	588.64	1532.1	66.753	596.2	1406.6	-9.8433	574.14	1122.7	-3.9668	726.44	1335.6	-15.926	812.28	1113.6	-8.9531	559.17	1301.1	89.405	773.04	931.6	-121.3	753.7	931.28	134.81	542	965.54	59.601	676.39	1345.4	157.65	675.13	1136.4	224.54	666.17	1028.7	252	763.12	906.38	250.53	814.39	817.22	207.85	767.04	793.1	259.54	824.71	771.27	255.91	660.04	1343.3	-184.17	614.76	1138.5	-225.52	603.95	896.2	-249.13	604.99	776.66	-213.58	588.82	734.96	-255	652.61	727.16	176.29	647.76	539.88	148.59	716.13	639.75	133	649.72	632.73	160.16	626.59	443.4	136.61	704.93	737.42	-170.53	764.06	564.5	-131.9	799.75	673	-118.78	734.37	646.86	-151.01	786.36	457.78	-118.47	823.27	362.77	-37.71	818.55	175.25	-35.708	799.12	268.95	-107.83	822.86	267.29	-40.544	783.6	60.526	-80.809	798.54	73.872	-0.74365	932.44	37.807	-39.351	892.95	21.448	-116.47	975.55	30.611	-62.594	548.77	964.95	-56.094	755.57	1585.7	29.642	559.67	1014.4	-164.76	575.61	1025.2	-234.9	581.71	1539	-60.214	337.01	183.52	51.919	549.49	785.87	-260.45	495.08	276.11	76.078	488.35	293.38	145.09	572.11	327.99	73.966	419.36	223.38	77.606	392.85	27.838	84.958	262.11	205.94	81.099	651.18	1003.1	171.02	369.88	51.853	57.324	309.64	186.78	127.36	325.33	53.127	131.68	735	27.834	-27.216
451	2.255	754.54	1584	-43.895	594.49	1532.8	65.769	602.09	1407.3	-10.816	579.95	1123.4	-4.6762	732.34	1336.3	-16.605	818.13	1114.4	-9.3829	564.9	1301.9	88.476	779.01	932.28	-121.53	759.8	932.24	134.01	547.67	965.97	59.158	682.04	1346.3	156.87	679.67	1137.1	223.73	669.99	1029.5	250.99	765.85	906.33	250.19	816.35	816.47	207.92	768.52	793.03	259.55	825.94	770.48	256.11	666.4	1344	-184.94	622.22	1139	-226.33	611.99	896.55	-249.58	612.7	777.03	-213.93	596.85	735.21	-255.34	660.42	727.53	175.63	658.15	540.07	148.51	725.24	640.77	132.82	658.76	632.99	159.69	638.14	443.79	136.88	709.76	737.78	-171.19	767.99	564.61	-132.31	804.42	672.93	-119.7	738.75	647.1	-151.56	789.7	457.74	-118.82	826.03	362.5	-38.032	819.62	175.01	-35.812	800.92	268.78	-108.05	824.74	267.03	-40.758	783.66	60.552	-80.761	798.64	73.847	-0.708	932.41	37.826	-39.265	892.96	21.505	-116.55	975.84	30.533	-62.759	554.44	965.71	-56.511	761.52	1586.3	28.879	567.13	1014.8	-165.58	583.45	1025.5	-235.7	587.75	1539.8	-61.226	346.38	187.25	52.85	557.58	786.18	-261.23	505.44	278.08	76.583	499.08	295.45	145.61	583.05	329.12	74.294	429.14	226.16	78.272	397.85	28.866	85.979	271.75	211.09	82.098	655.55	1004.1	169.83	376.22	54.015	58.473	319.03	190.9	128.31	331.78	56.632	132.16	735.01	27.874	-27.226
452	2.26	760.57	1584.6	-44.635	600.33	1533.6	64.827	607.94	1408	-11.753	585.72	1124.1	-5.3678	738.2	1337.1	-17.258	823.93	1115.1	-9.7778	570.58	1302.8	87.562	784.86	932.98	-121.8	765.85	933.22	133.29	553.33	966.44	58.725	687.64	1347.2	156.13	684.18	1137.9	222.95	673.79	1030.3	250	768.54	906.27	249.87	818.24	815.72	207.99	769.95	792.98	259.57	827.11	769.69	256.31	672.7	1344.6	-185.67	629.63	1139.4	-227.14	620.1	896.91	-250.04	620.5	777.39	-214.26	605.01	735.45	-255.67	668.21	727.99	175.01	668.48	540.4	148.43	734.31	641.89	132.65	667.75	633.38	159.25	649.67	444.31	137.13	714.5	738.12	-171.82	771.78	564.68	-132.71	808.97	672.81	-120.6	743.02	647.31	-152.1	792.89	457.68	-119.17	828.66	362.22	-38.339	820.62	174.78	-35.914	802.65	268.61	-108.27	826.54	266.76	-40.962	783.71	60.574	-80.718	798.73	73.828	-0.67793	932.38	37.866	-39.208	892.96	21.556	-116.61	976.1	30.482	-62.962	560.07	966.47	-56.908	767.46	1587	28.147	574.61	1015.1	-166.4	591.31	1025.8	-236.49	593.76	1540.6	-62.195	355.98	190.83	53.588	565.81	786.47	-262.02	515.91	280.07	76.968	509.91	297.51	146.01	594.06	330.36	74.544	439.1	228.9	78.788	403.79	30.104	87.151	281.58	215.84	82.868	659.88	1005.1	168.67	383.34	56.268	59.692	328.64	194.85	129.08	338.94	60.17	132.7	735.01	27.912	-27.23
453	2.265	766.59	1585.3	-45.344	606.16	1534.4	63.928	613.75	1408.7	-12.653	591.45	1124.9	-6.0433	744.02	1337.8	-17.887	829.67	1115.9	-10.139	576.22	1303.6	86.665	790.58	933.67	-122.13	771.82	934.22	132.64	558.99	966.95	58.299	693.2	1348.1	155.43	688.64	1138.7	222.19	677.58	1031.1	249.03	771.18	906.22	249.56	820.07	814.99	208.05	771.35	792.94	259.59	828.21	768.92	256.49	678.93	1345.3	-186.38	637	1139.8	-227.93	628.27	897.27	-250.5	628.36	777.76	-214.58	613.29	735.69	-255.99	675.96	728.56	174.43	678.72	540.86	148.35	743.3	643.09	132.48	676.66	633.92	158.82	661.15	444.98	137.35	719.16	738.44	-172.42	775.45	564.71	-133.09	813.42	672.63	-121.47	747.19	647.49	-152.61	795.95	457.59	-119.49	831.17	361.94	-38.626	821.57	174.55	-36.01	804.33	268.42	-108.49	828.25	266.49	-41.152	783.75	60.592	-80.679	798.82	73.814	-0.65091	932.34	37.918	-39.176	892.96	21.602	-116.66	976.34	30.445	-63.196	565.67	967.24	-57.287	773.39	1587.6	27.446	582.11	1015.5	-167.22	599.18	1026.1	-237.26	599.75	1541.4	-63.12	365.82	194.22	54.131	574.15	786.74	-262.83	526.5	282.07	77.238	520.81	299.55	146.3	605.11	331.68	74.718	449.23	231.58	79.155	410.69	31.542	88.464	291.56	220.17	83.398	664.16	1006.1	167.53	391.27	58.581	60.976	338.46	198.6	129.66	346.83	63.698	133.3	735.01	27.949	-27.229
